<?xml version="1.0" encoding="utf-8"?>
<!-- Generator: Adobe Illustrator 22.1.0, SVG Export Plug-In . SVG Version: 6.00 Build 0)  -->
<svg version="1.1" id="Слой_1" xmlns="http://www.w3.org/2000/svg" xmlns:xlink="http://www.w3.org/1999/xlink" x="0px" y="0px"
	 viewBox="0 0 64 64" style="enable-background:new 0 0 64 64;" xml:space="preserve">
<style type="text/css">
	.st0{fill:#FFFFFF;stroke:#000000;stroke-miterlimit:10;}
</style>
<path class="st0" d="M1.5,1.5c0,0-11,61,61,61v-16h-13v8c0,0-41,2-41-40h13v-13H1.5z"/>
<path class="st0" d="M28.5,35.5v-8c0,0,8-1,8,8H28.5z"/>
<path class="st0" d="M28.5,22.5v-4c0,0,18-1,18,17h-5C41.5,35.5,41.5,22.5,28.5,22.5z"/>
<path class="st0" d="M28.5,9.5v4c0,0,23-1,23,22h5C56.5,35.5,57.5,9.5,28.5,9.5z"/>
</svg>
